<svg width="16" height="16" viewBox="0 0 16 16" fill="none"
  xmlns="http://www.w3.org/2000/svg">
  <path d="M0 0V16H16V0H0ZM14.6667 14.6667H1.33334V1.33334H14.6667V14.6667H14.6667Z" fill="white"/>
  <path d="M12.6668 6L10.943 6L13.1382 3.80475C13.3986 3.54441 13.3986 3.12228 13.1382 2.86194C12.8779 2.60159 12.4558 2.60159 12.1954 2.86194L10.0002 5.05719L10.0002 3.33334C10.0002 2.96516 9.7017 2.66669 9.33351 2.66669C8.96532 2.66669 8.66686 2.96516 8.66686 3.33334L8.66686 6.66663C8.66686 6.68859 8.66801 6.71056 8.67017 6.73247C8.67114 6.74231 8.67298 6.75188 8.67439 6.76159C8.67607 6.77341 8.67745 6.78522 8.67979 6.79691C8.68201 6.80809 8.68507 6.81891 8.68786 6.82988C8.69039 6.84 8.69261 6.85016 8.69564 6.86016C8.69889 6.87091 8.70292 6.88131 8.7067 6.89181C8.71029 6.90181 8.71357 6.91188 8.71764 6.92172C8.7217 6.93153 8.72648 6.94097 8.73101 6.95053C8.73579 6.96069 8.74029 6.97091 8.74561 6.98084C8.75051 6.99003 8.75614 6.99875 8.76145 7.00769C8.76726 7.01744 8.77276 7.02728 8.77911 7.03678C8.7857 7.04663 8.79304 7.05591 8.80014 7.06538C8.80607 7.07331 8.81161 7.08147 8.81795 7.08919C8.83179 7.10603 8.84636 7.12225 8.86176 7.13766C8.86189 7.13778 8.86198 7.13791 8.86211 7.13803C8.86223 7.13816 8.86236 7.13822 8.86245 7.13834C8.87789 7.15375 8.89407 7.16834 8.91095 7.18219C8.91867 7.18853 8.92679 7.19403 8.93473 7.19997C8.9442 7.20706 8.95348 7.21441 8.96333 7.221C8.97283 7.22734 8.98267 7.23284 8.99239 7.23866C9.00132 7.244 9.01004 7.24959 9.01926 7.25453C9.02917 7.25984 9.03936 7.26431 9.04948 7.26909C9.05911 7.27363 9.06854 7.27844 9.07839 7.28253C9.0882 7.28659 9.0982 7.28984 9.10814 7.29344C9.1187 7.29725 9.12914 7.30128 9.13995 7.30456C9.14989 7.30756 9.15998 7.30978 9.17004 7.31231C9.18108 7.31509 9.19198 7.31819 9.2032 7.32041C9.21483 7.32272 9.22654 7.32406 9.23826 7.32575C9.24807 7.32716 9.25773 7.32903 9.26767 7.33C9.28954 7.33216 9.31148 7.33331 9.33345 7.33331L12.6668 7.33331C13.035 7.33331 13.3335 7.03484 13.3335 6.66666C13.3335 6.29847 13.035 6 12.6668 6Z" fill="white"/>
  <path d="M7.33018 9.26738C7.32922 9.25744 7.32734 9.24778 7.32593 9.23797C7.32425 9.22625 7.3229 9.21453 7.32059 9.20291C7.31837 9.19166 7.31528 9.18078 7.3125 9.16975C7.30997 9.15969 7.30778 9.1496 7.30475 9.13966C7.30147 9.12885 7.29743 9.11841 7.29362 9.10785C7.29006 9.09791 7.28678 9.08788 7.28272 9.0781C7.27862 9.06825 7.27384 9.05878 7.26928 9.04919C7.2645 9.03906 7.26003 9.02888 7.25472 9.01897C7.24978 9.00978 7.24418 9.00103 7.23884 8.9921C7.23303 8.98238 7.22753 8.9725 7.22118 8.96303C7.21459 8.95319 7.20725 8.94391 7.20015 8.93444C7.19422 8.9265 7.18872 8.91838 7.18237 8.91066C7.16853 8.89378 7.15393 8.87757 7.13853 8.86216C7.1384 8.86203 7.13834 8.86191 7.13822 8.86182C7.13809 8.86169 7.13797 8.8616 7.13784 8.86147C7.12243 8.8461 7.10622 8.8315 7.08937 8.81766C7.08165 8.81132 7.0735 8.80582 7.06556 8.79985C7.05609 8.79275 7.04681 8.78541 7.03697 8.77882C7.02747 8.77247 7.01762 8.76697 7.00787 8.76116C6.99893 8.75582 6.99022 8.75022 6.98103 8.74532C6.97109 8.74 6.96087 8.7355 6.95072 8.73072C6.94115 8.72619 6.93172 8.72141 6.9219 8.71735C6.91206 8.71328 6.902 8.70997 6.892 8.70641C6.88147 8.70263 6.87109 8.6986 6.86034 8.69535C6.85034 8.69232 6.84015 8.6901 6.83006 8.68757C6.81909 8.68478 6.80825 8.68172 6.79709 8.6795C6.78537 8.67719 6.77356 8.67582 6.76178 8.6741C6.75206 8.67272 6.7425 8.67085 6.73265 8.66988C6.71078 8.66772 6.68881 8.66657 6.66687 8.66657L3.33353 8.66657C2.96534 8.66657 2.66687 8.96503 2.66687 9.33322C2.66687 9.70141 2.96534 9.99988 3.33353 9.99988L5.05737 9.99988L2.86212 12.1951C2.60178 12.4555 2.60178 12.8776 2.86212 13.1379C3.12247 13.3983 3.54459 13.3983 3.80493 13.1379L6.00018 10.9426L6.00018 12.6665C6.00018 13.0347 6.29865 13.3331 6.66684 13.3331C7.03503 13.3331 7.3335 13.0347 7.3335 12.6665L7.3335 9.33313C7.3335 9.33291 7.33347 9.33266 7.33347 9.33244C7.33347 9.31072 7.33234 9.289 7.33018 9.26738Z" fill="white"/>
</svg>
