<svg width="16" height="16" viewBox="0 0 16 16" fill="none"
  xmlns="http://www.w3.org/2000/svg">
  <path d="M0 0V16H16V0H0ZM14.6667 14.6667H1.33334V1.33334H14.6667V14.6667H14.6667Z" fill="#CCCCCC"/>
  <path d="M9.33335 4.00006H11.0572L8.86195 6.19531C8.6016 6.45565 8.6016 6.87778 8.86195 7.13812C9.12229 7.39847 9.54442 7.39847 9.80476 7.13812L12 4.94287V6.66672C12 7.0349 12.2985 7.33337 12.6667 7.33337C13.0349 7.33337 13.3333 7.0349 13.3333 6.66672V3.33344C13.3333 3.31147 13.3322 3.2895 13.33 3.26759C13.329 3.25775 13.3272 3.24819 13.3258 3.23847C13.3241 3.22665 13.3227 3.21484 13.3204 3.20315C13.3182 3.19197 13.3151 3.18115 13.3123 3.17019C13.3098 3.16006 13.3076 3.1499 13.3045 3.1399C13.3013 3.12915 13.2973 3.11875 13.2935 3.10825C13.2899 3.09825 13.2866 3.08819 13.2825 3.07834C13.2785 3.06853 13.2737 3.05909 13.2692 3.04953C13.2644 3.03937 13.2599 3.02915 13.2546 3.01922C13.2497 3.01003 13.244 3.00131 13.2387 2.99237C13.2329 2.98262 13.2274 2.97278 13.2211 2.96328C13.2145 2.95344 13.2071 2.94415 13.2 2.93469C13.1941 2.92675 13.1886 2.91859 13.1822 2.91087C13.1684 2.89403 13.1538 2.87781 13.1384 2.8624C13.1383 2.86228 13.1382 2.86215 13.1381 2.86203C13.138 2.8619 13.1378 2.86184 13.1377 2.86172C13.1223 2.84631 13.1061 2.83172 13.0892 2.81787C13.0815 2.81153 13.0734 2.80603 13.0655 2.80009C13.056 2.793 13.0467 2.78565 13.0369 2.77906C13.0274 2.77272 13.0175 2.76722 13.0078 2.7614C12.9989 2.75606 12.9901 2.75047 12.9809 2.74553C12.971 2.74022 12.9608 2.73575 12.9507 2.73097C12.9411 2.72644 12.9316 2.72162 12.9218 2.71753C12.912 2.71347 12.902 2.71022 12.892 2.70662C12.8815 2.70281 12.871 2.69878 12.8602 2.6955C12.8503 2.6925 12.8402 2.69028 12.8301 2.68775C12.8191 2.68497 12.8082 2.68187 12.797 2.67965C12.7854 2.67734 12.7736 2.676 12.7619 2.67431C12.7521 2.6729 12.7425 2.67103 12.7325 2.67006C12.7106 2.6679 12.6887 2.66675 12.6667 2.66675H9.33335C8.96516 2.66675 8.6667 2.96522 8.6667 3.3334C8.66666 3.70159 8.96516 4.00006 9.33335 4.00006Z" fill="#CCCCCC"/>
  <path d="M2.67 12.7323C2.67097 12.7423 2.67284 12.7519 2.67425 12.7617C2.67594 12.7734 2.67728 12.7852 2.67959 12.7968C2.68181 12.808 2.68491 12.8189 2.68769 12.8299C2.69022 12.84 2.69241 12.8501 2.69544 12.86C2.69872 12.8708 2.70275 12.8813 2.70656 12.8918C2.71012 12.9018 2.71341 12.9118 2.71747 12.9216C2.72156 12.9314 2.72634 12.9409 2.73091 12.9505C2.73569 12.9606 2.74016 12.9708 2.74547 12.9807C2.75041 12.9899 2.756 12.9987 2.76134 13.0076C2.76716 13.0173 2.77266 13.0272 2.779 13.0367C2.78559 13.0465 2.79294 13.0558 2.80003 13.0653C2.80597 13.0732 2.81147 13.0813 2.81781 13.089C2.83166 13.1059 2.84625 13.1221 2.86166 13.1375C2.86178 13.1377 2.86184 13.1378 2.86197 13.1379C2.86209 13.138 2.86222 13.1381 2.86234 13.1382C2.87775 13.1536 2.89397 13.1682 2.91081 13.182C2.91853 13.1884 2.92669 13.1939 2.93462 13.1998C2.94409 13.2069 2.95337 13.2143 2.96322 13.2209C2.97272 13.2272 2.98256 13.2327 2.99231 13.2385C3.00125 13.2439 3.00997 13.2495 3.01916 13.2544C3.02909 13.2597 3.03931 13.2642 3.04947 13.269C3.05903 13.2735 3.06847 13.2783 3.07828 13.2823C3.08812 13.2864 3.09819 13.2897 3.10819 13.2933C3.11872 13.2971 3.12909 13.3011 3.13984 13.3043C3.14984 13.3074 3.16003 13.3096 3.17012 13.3121C3.18109 13.3149 3.19194 13.318 3.20309 13.3202C3.21481 13.3225 3.22662 13.3239 3.23841 13.3256C3.24812 13.327 3.25769 13.3288 3.26753 13.3298C3.28941 13.332 3.31137 13.3331 3.33331 13.3331H6.66665C7.03484 13.3331 7.33331 13.0347 7.33331 12.6665C7.33331 12.2983 7.03484 11.9998 6.66665 11.9998H4.94281L7.13806 9.80457C7.39841 9.54423 7.39841 9.1221 7.13806 8.86176C6.87772 8.60142 6.45559 8.60142 6.19525 8.86176L4 11.0571V9.33323C4 8.96504 3.70153 8.66658 3.33334 8.66658C2.96516 8.66658 2.66669 8.96504 2.66669 9.33323V12.6666C2.66669 12.6668 2.66672 12.667 2.66672 12.6673C2.66672 12.689 2.66784 12.7107 2.67 12.7323Z" fill="#CCCCCC"/>
</svg>
